<svg width="84" height="84" viewBox="0 0 84 84" fill="none" xmlns="http://www.w3.org/2000/svg">
<g clip-path="url(#clip0_1_10253)">
<path d="M35.669 0.5C36.1746 0.500116 36.584 0.91022 36.584 1.41602V6.16309H43.2198C43.7253 6.16327 44.1348 6.57335 44.1348 7.0791V13.7139H47.9669V7.0791C47.9669 6.5733 48.3762 6.16326 48.8819 6.16309H75.3096C75.8151 6.1633 76.2247 6.57336 76.2247 7.0791V80.6689H24.3712V78.8086C24.3709 77.7505 23.5128 76.8936 22.4551 76.8936C21.3975 76.8936 20.5394 77.7505 20.5391 78.8086V80.6689H8.96686L8.32623 80.668V27.8428C8.32623 27.3369 8.73643 26.9268 9.24225 26.9268H21.5401V14.6289C21.5402 14.1232 21.9495 13.714 22.4551 13.7139H27.2022V7.0791C27.2022 6.57322 27.6124 6.16313 28.1182 6.16309H34.753V1.41602C34.753 0.910148 35.1633 0.5 35.669 0.5Z" stroke="#05C2DF" stroke-linecap="round"/>
<path d="M43.0001 77.5001V51.0733" stroke="#05C2DF" stroke-linecap="round"/>
<path d="M49.0001 77.4269V51" stroke="#05C2DF" stroke-linecap="round"/>
<path d="M55.0001 77.4269V51" stroke="#05C2DF" stroke-linecap="round"/>
<path d="M56.1575 13.4639C56.8011 13.464 57.3226 13.986 57.3226 14.6299V16.5176C57.3223 17.1612 56.8011 17.6824 56.1575 17.6826C55.5137 17.6826 54.9917 17.1612 54.9915 16.5176V14.6299L54.9974 14.5107C55.0569 13.9226 55.5539 13.4639 56.1575 13.4639Z" fill="#05C2DF" stroke="#05040B" stroke-width="0.5" stroke-linecap="round"/>
<path d="M61.8208 13.4639C62.4644 13.464 62.9858 13.986 62.9858 14.6299V16.5176C62.9856 17.1612 62.4644 17.6824 61.8208 17.6826C61.177 17.6826 60.655 17.1612 60.6548 16.5176V14.6299L60.6606 14.5107C60.7202 13.9226 61.2172 13.4639 61.8208 13.4639Z" fill="#05C2DF" stroke="#05040B" stroke-width="0.5" stroke-linecap="round"/>
<path d="M67.484 13.4639C68.1276 13.464 68.649 13.986 68.649 14.6299V16.5176C68.6488 17.1612 68.1276 17.6824 67.484 17.6826C66.8402 17.6826 66.3182 17.1612 66.318 16.5176V14.6299L66.3239 14.5107C66.3834 13.9226 66.8804 13.4639 67.484 13.4639Z" fill="#05C2DF" stroke="#05040B" stroke-width="0.5" stroke-linecap="round"/>
<path d="M56.1575 22.9014C56.8011 22.9015 57.3226 23.4235 57.3226 24.0674V25.9551C57.3224 26.5988 56.8012 27.1199 56.1575 27.1201C55.5138 27.1201 54.9917 26.5989 54.9915 25.9551V24.0674C54.9915 23.4234 55.5138 22.9014 56.1575 22.9014Z" fill="#05C2DF" stroke="#05040B" stroke-width="0.5" stroke-linecap="round"/>
<path d="M61.8208 22.9014C62.4644 22.9015 62.9858 23.4235 62.9858 24.0674V25.9551C62.9857 26.5988 62.4644 27.1199 61.8208 27.1201C61.177 27.1201 60.655 26.5989 60.6548 25.9551V24.0674C60.6548 23.4234 61.1771 22.9014 61.8208 22.9014Z" fill="#05C2DF" stroke="#05040B" stroke-width="0.5" stroke-linecap="round"/>
<path d="M67.484 22.9014C68.1276 22.9015 68.649 23.4235 68.649 24.0674V25.9551C68.6489 26.5988 68.1276 27.1199 67.484 27.1201C66.8402 27.1201 66.3182 26.5989 66.318 25.9551V24.0674C66.318 23.4234 66.8403 22.9014 67.484 22.9014Z" fill="#05C2DF" stroke="#05040B" stroke-width="0.5" stroke-linecap="round"/>
<path d="M56.1575 32.3398C56.8011 32.34 57.3226 32.862 57.3226 33.5059V35.3936C57.3224 36.0373 56.8012 36.5584 56.1575 36.5586C55.5138 36.5586 54.9917 36.0373 54.9915 35.3936V33.5059C54.9915 32.8619 55.5138 32.3398 56.1575 32.3398Z" fill="#05C2DF" stroke="#05040B" stroke-width="0.5" stroke-linecap="round"/>
<path d="M61.8208 32.3398C62.4644 32.34 62.9858 32.862 62.9858 33.5059V35.3936C62.9857 36.0373 62.4644 36.5584 61.8208 36.5586C61.1771 36.5586 60.655 36.0373 60.6548 35.3936V33.5059C60.6548 32.8619 61.1771 32.3398 61.8208 32.3398Z" fill="#05C2DF" stroke="#05040B" stroke-width="0.5" stroke-linecap="round"/>
<path d="M67.484 32.3398C68.1276 32.34 68.649 32.862 68.649 33.5059V35.3936C68.6489 36.0373 68.1276 36.5584 67.484 36.5586C66.8403 36.5586 66.3182 36.0373 66.318 35.3936V33.5059C66.318 32.8619 66.8403 32.3398 67.484 32.3398Z" fill="#05C2DF" stroke="#05040B" stroke-width="0.5" stroke-linecap="round"/>
<path d="M16.5172 36.1152C17.1608 36.1154 17.6823 36.6374 17.6823 37.2812V39.1689C17.6821 39.8127 17.1608 40.3338 16.5172 40.334C15.8736 40.334 15.3514 39.8126 15.3512 39.1689V37.2812C15.3512 36.6373 15.8735 36.1152 16.5172 36.1152Z" fill="#05C2DF" stroke="#05040B" stroke-width="0.5" stroke-linecap="round"/>
<path d="M22.1804 36.1152C22.8239 36.1154 23.3454 36.6374 23.3454 37.2812V39.1689C23.3452 39.8127 22.824 40.3338 22.1804 40.334C21.5366 40.334 21.0145 39.8127 21.0143 39.1689V37.2812C21.0143 36.6373 21.5366 36.1152 22.1804 36.1152Z" fill="#05C2DF" stroke="#05040B" stroke-width="0.5" stroke-linecap="round"/>
<path d="M27.843 36.1152C28.4866 36.1154 29.0081 36.6374 29.0081 37.2812V39.1689C29.0079 39.8127 28.4866 40.3338 27.843 40.334C27.1993 40.334 26.6772 39.8127 26.677 39.1689V37.2812C26.677 36.6373 27.1993 36.1152 27.843 36.1152Z" fill="#05C2DF" stroke="#05040B" stroke-width="0.5" stroke-linecap="round"/>
<path d="M16.5172 45.5537C17.1608 45.5539 17.6823 46.0759 17.6823 46.7197V48.6074C17.6821 49.2512 17.1608 49.7723 16.5172 49.7725C15.8736 49.7725 15.3514 49.2511 15.3512 48.6074V46.7197C15.3512 46.0757 15.8735 45.5537 16.5172 45.5537Z" fill="#05C2DF" stroke="#05040B" stroke-width="0.5" stroke-linecap="round"/>
<path d="M22.1804 45.5537C22.8239 45.5539 23.3454 46.0759 23.3454 46.7197V48.6074C23.3452 49.2512 22.824 49.7723 22.1804 49.7725C21.5366 49.7725 21.0145 49.2511 21.0143 48.6074V46.7197C21.0143 46.0757 21.5366 45.5537 22.1804 45.5537Z" fill="#05C2DF" stroke="#05040B" stroke-width="0.5" stroke-linecap="round"/>
<path d="M27.843 45.5537C28.4866 45.5539 29.0081 46.0759 29.0081 46.7197V48.6074C29.0079 49.2512 28.4866 49.7723 27.843 49.7725C27.1993 49.7725 26.6772 49.2511 26.677 48.6074V46.7197C26.677 46.0757 27.1993 45.5537 27.843 45.5537Z" fill="#05C2DF" stroke="#05040B" stroke-width="0.5" stroke-linecap="round"/>
<path d="M16.5172 54.9912C17.1608 54.9914 17.6823 55.5134 17.6823 56.1572V58.0449C17.6821 58.6887 17.1608 59.2098 16.5172 59.21C15.8736 59.21 15.3514 58.6888 15.3512 58.0449V56.1572C15.3512 55.5132 15.8735 54.9912 16.5172 54.9912Z" fill="#05C2DF" stroke="#05040B" stroke-width="0.5" stroke-linecap="round"/>
<path d="M22.1804 54.9912C22.8239 54.9914 23.3454 55.5134 23.3454 56.1572V58.0449C23.3452 58.6887 22.824 59.2098 22.1804 59.21C21.5366 59.21 21.0145 58.6888 21.0143 58.0449V56.1572C21.0143 55.5132 21.5366 54.9912 22.1804 54.9912Z" fill="#05C2DF" stroke="#05040B" stroke-width="0.5" stroke-linecap="round"/>
<path d="M27.843 54.9912C28.4866 54.9914 29.0081 55.5134 29.0081 56.1572V58.0449C29.0079 58.6887 28.4866 59.2098 27.843 59.21C27.1993 59.21 26.6772 58.6888 26.677 58.0449V56.1572C26.677 55.5132 27.1993 54.9912 27.843 54.9912Z" fill="#05C2DF" stroke="#05040B" stroke-width="0.5" stroke-linecap="round"/>
<path d="M16.5172 64.4297C17.1608 64.4299 17.6823 64.9518 17.6823 65.5957V67.4834C17.6821 68.1271 17.1608 68.6483 16.5172 68.6484C15.8736 68.6484 15.3514 68.1272 15.3512 67.4834V65.5957C15.3512 64.9517 15.8735 64.4297 16.5172 64.4297Z" fill="#05C2DF" stroke="#05040B" stroke-width="0.5" stroke-linecap="round"/>
<path d="M22.1804 64.4297C22.8239 64.4299 23.3454 64.9518 23.3454 65.5957V67.4834C23.3452 68.1271 22.824 68.6483 22.1804 68.6484C21.5366 68.6484 21.0145 68.1273 21.0143 67.4834V65.5957C21.0143 64.9517 21.5366 64.4297 22.1804 64.4297Z" fill="#05C2DF" stroke="#05040B" stroke-width="0.5" stroke-linecap="round"/>
<path d="M27.843 64.4297C28.4866 64.4299 29.0081 64.9518 29.0081 65.5957V67.4834C29.0079 68.1271 28.4866 68.6483 27.843 68.6484C27.1993 68.6484 26.6772 68.1273 26.677 67.4834V65.5957C26.677 64.9517 27.1993 64.4297 27.843 64.4297Z" fill="#05C2DF" stroke="#05040B" stroke-width="0.5" stroke-linecap="round"/>
<path d="M67.484 41.7783C68.1276 41.7785 68.649 42.3005 68.649 42.9443V44.832C68.6489 45.4758 68.1276 45.9969 67.484 45.9971C66.8403 45.9971 66.3182 45.4757 66.318 44.832V42.9443C66.318 42.3004 66.8403 41.7783 67.484 41.7783Z" fill="#05C2DF" stroke="#05040B" stroke-width="0.5" stroke-linecap="round"/>
<path d="M67.484 51.2168C68.1276 51.217 68.649 51.7389 68.649 52.3828V54.2705C68.6489 54.9142 68.1276 55.4354 67.484 55.4355C66.8403 55.4355 66.3182 54.9142 66.318 54.2705V52.3828C66.318 51.7388 66.8403 51.2168 67.484 51.2168Z" fill="#05C2DF" stroke="#05040B" stroke-width="0.5" stroke-linecap="round"/>
<path d="M67.484 60.6543C68.1276 60.6545 68.649 61.1764 68.649 61.8203V63.708C68.6489 64.3518 68.1276 64.8729 67.484 64.873C66.8403 64.873 66.3182 64.3517 66.318 63.708V61.8203C66.318 61.1763 66.8403 60.6543 67.484 60.6543Z" fill="#05C2DF" stroke="#05040B" stroke-width="0.5" stroke-linecap="round"/>
<path d="M67.484 70.0928C68.1276 70.0929 68.649 70.6149 68.649 71.2588V73.1465C68.6489 73.7902 68.1276 74.3114 67.484 74.3115C66.8403 74.3115 66.3182 73.7902 66.318 73.1465V71.2588C66.318 70.6148 66.8403 70.0928 67.484 70.0928Z" fill="#05C2DF" stroke="#05040B" stroke-width="0.5" stroke-linecap="round"/>
<path d="M41.326 20H30.0001" stroke="#05C2DF" stroke-linecap="round"/>
<path fill-rule="evenodd" clip-rule="evenodd" d="M56 42C55.4477 42 55 42.4477 55 43V44H57V43C57 42.4477 56.5523 42 56 42Z" fill="#05C2DF"/>
<path fill-rule="evenodd" clip-rule="evenodd" d="M62 42C61.4477 42 61 42.4477 61 43V44H63V43C63 42.4477 62.5523 42 62 42Z" fill="#05C2DF"/>
</g>
<defs>
<clipPath id="clip0_1_10253">
<rect width="84" height="84" fill="white"/>
</clipPath>
</defs>
</svg>
