<svg width="113" height="81" viewBox="0 0 113 81" fill="none" xmlns="http://www.w3.org/2000/svg">
<circle cx="56.1544" cy="40.8398" r="13.5898" stroke="#05C2DF"/>
<path d="M70.5965 26.4336C75.2661 29.5226 78.3459 34.8213 78.3459 40.8392C78.3459 46.8572 75.2661 52.1558 70.5965 55.2449" stroke="#05C2DF"/>
<path d="M70.7729 55.1055L77.1133 63.2071" stroke="#05C2DF"/>
<path d="M76.937 63.3831C84.3657 58.5112 89.2656 50.1545 89.2656 40.6632C89.2656 31.172 84.3657 22.8152 76.937 17.9434L70.5965 26.5734" stroke="#05C2DF"/>
<path d="M83.982 9.49023C93.9578 16.0994 100.538 27.436 100.538 40.3117C100.538 53.1875 93.9578 64.5241 83.982 71.1332" stroke="#05C2DF"/>
<path d="M83.9818 9.66586L90.3222 0.683594C103.27 9.21883 111.809 23.8593 111.809 40.4874C111.809 57.1154 103.27 71.7559 90.3222 80.2911L83.8057 71.1327" stroke="#05C2DF"/>
<path d="M41.7119 26.4336C37.0424 29.5226 33.9625 34.8213 33.9625 40.8392C33.9625 46.8572 37.0424 52.1558 41.7119 55.2449" stroke="#05C2DF"/>
<path d="M41.5364 55.1055L35.1959 63.2071" stroke="#05C2DF"/>
<path d="M35.3715 63.3831C27.9427 58.5112 23.0429 50.1545 23.0429 40.6632C23.0429 31.172 27.9427 22.8152 35.3715 17.9434L41.7119 26.5734" stroke="#05C2DF"/>
<path d="M28.3272 9.49023C18.3514 16.0994 11.7717 27.436 11.7717 40.3117C11.7717 53.1875 18.3514 64.5241 28.3272 71.1332" stroke="#05C2DF"/>
<path d="M28.3274 9.66586L21.987 0.683594C9.03968 9.21883 0.500003 23.8593 0.500003 40.4874C0.500003 57.1154 9.03968 71.7559 21.987 80.2911L28.5035 71.1327" stroke="#05C2DF"/>
</svg>
