<svg width="114" height="84" viewBox="0 0 114 84" fill="none" xmlns="http://www.w3.org/2000/svg">
<path d="M49.9083 18.1469C52.7341 22.045 54.228 26.6569 54.228 31.4831C54.228 44.0246 44.0247 54.2279 31.4832 54.2279C18.9417 54.2279 8.7384 44.0246 8.7384 31.4831C8.7384 18.9415 18.9417 8.73828 31.4832 8.73828C36.3016 8.73828 40.9067 10.2275 44.8009 13.0448" stroke="#05C2DF" stroke-width="1.00668" stroke-linejoin="round"/>
<path d="M31.4839 22.373C36.5069 22.373 40.5941 26.4605 40.5943 31.4834C40.5943 36.5064 36.5068 40.5938 31.4839 40.5938C26.4613 40.5936 22.3736 36.5063 22.3736 31.4834C22.3738 26.4606 26.4611 22.3732 31.4839 22.373Z" stroke="#05C2DF" stroke-width="1.00668"/>
<path d="M112.265 0.50293C102.761 0.50293 95.0289 8.23522 95.0289 17.7393V26.7206C92.756 27.3948 90.6644 28.6139 88.9205 30.3111" stroke="#05C2DF" stroke-width="1.00668"/>
<path d="M48.9829 57.0349C53.4487 53.9667 57.0741 49.7607 59.4355 44.8369M93.7998 53.5032C92.1039 51.9547 90.1956 50.6636 88.1275 49.6655L87.7822 49.4989M85.0213 36.8173C84.6334 38.1602 84.4367 39.5423 84.4367 40.926V47.8846L82.6694 47.0317C75.8629 43.7471 68.3461 41.8674 60.7896 41.5351C61.8739 38.3819 62.4641 35.0009 62.4641 31.4844C62.4641 14.4017 48.5663 0.503906 31.4838 0.503906C14.4014 0.503906 0.503357 14.4017 0.503357 31.4844C0.503357 48.5671 14.4011 62.4648 31.4838 62.4648C36.7135 62.4648 41.6436 61.1603 45.9691 58.8627C47.5796 60.2588 74.1862 83.1337 88.1025 83.1337C88.2727 83.1337 88.4422 83.1301 88.6085 83.1232C102.534 82.542 113.062 71.1227 113.503 70.637" stroke="#05C2DF" stroke-width="1.00668"/>
</svg>
