<svg width="78" height="17" viewBox="0 0 78 17" fill="none" xmlns="http://www.w3.org/2000/svg">
<path d="M33 5.18555V0.185547H49.5V5.18555H43.5V11.6855L38.5 16.1855V5.18555H33Z" fill="white"/>
<path d="M5 0.185547H0V16.1855L16.5 0.185547H10L5 5.18555V0.185547Z" fill="white"/>
<path d="M9.5 9.18555L6.5 12.1855L10.5 16.1855H16.5L9.5 9.18555Z" fill="white"/>
<path d="M18 16.1855V0.185547H25L34.5 10.1855V16.1855L24 5.18555H22.5V8.18555H25L28.5 11.6855H22.5L18 16.1855Z" fill="white"/>
<path d="M53 0.185547L59 15.1855L64.5 0.185547" stroke="#05C2DF"/>
<path d="M67 16.1855V8.68555M71.5 8.68555C79 8.68555 77.5 0.685547 72.5 0.685547H67V8.68555M71.5 8.68555H67M71.5 8.68555L77.5 16.1855" stroke="#05C2DF"/>
</svg>
