<svg width="237" height="69" viewBox="0 0 237 69" fill="none" xmlns="http://www.w3.org/2000/svg">
<path opacity="0.45" d="M51 6.05469C46.1191 2.64341 40.9135 1.40676 35 1.05472C29.0865 0.702688 23.5605 2.05791 18.3211 4.86672C13.0817 7.67553 8.69816 11.8874 5.64507 17.0464C2.59199 22.2054 0.985693 28.1148 1.0001 34.135C1.0145 40.1552 2.64905 46.0566 5.72678 51.2005C8.80452 56.3443 13.2082 60.5345 18.4609 63.3174C23.7137 66.1002 29.6155 67.3698 35.5272 66.9885C41.439 66.6073 47.1355 64.49 52 61.0547" stroke="#05C2DF" stroke-width="2" stroke-miterlimit="1.51696"/>
<path d="M34.0306 60.2102C48.6177 60.2102 60.4429 48.4196 60.4429 33.8751C60.4429 19.3306 48.6177 7.54004 34.0306 7.54004C19.4434 7.54004 7.61816 19.3306 7.61816 33.8751C7.61816 48.4196 19.4434 60.2102 34.0306 60.2102Z" stroke="#05C2DF" stroke-miterlimit="10"/>
<path opacity="0.45" d="M86 11.0547H56V13.0547H86V11.0547Z" fill="#05C2DF"/>
<path opacity="0.45" d="M86 55.0547H56V57.0547H86V55.0547Z" fill="#05C2DF"/>
<path d="M45 34.0547L27.75 44.447L27.75 23.6624L45 34.0547Z" fill="#05C2DF"/>
<path opacity="0.45" d="M82.2238 11.0547H80.2646V13.0547H82.2238V11.0547Z" fill="#05C2DF"/>
<path opacity="0.45" d="M79.2853 11.0547H77.3262V13.0547H79.2853V11.0547Z" fill="#05C2DF"/>
<path opacity="0.45" d="M85.1633 11.0547H83.2041V13.0547H85.1633V11.0547Z" fill="#05C2DF"/>
<path opacity="0.45" d="M88.1017 11.0547H86.1426V13.0547H88.1017V11.0547Z" fill="#05C2DF"/>
<path opacity="0.45" d="M91.0403 11.0547H89.0811V13.0547H91.0403V11.0547Z" fill="#05C2DF"/>
<path opacity="0.45" d="M94.9592 11.0547H93V13.0547H94.9592V11.0547Z" fill="#05C2DF"/>
<path opacity="0.45" d="M98.8772 11.0547H96.918V13.0547H98.8772V11.0547Z" fill="#05C2DF"/>
<path opacity="0.45" d="M102.795 11.0547H100.836V13.0547H102.795V11.0547Z" fill="#05C2DF"/>
<path opacity="0.45" d="M107.694 11.0547H105.734V13.0547H107.694V11.0547Z" fill="#05C2DF"/>
<path opacity="0.45" d="M112.591 11.0547H110.632V13.0547H112.591V11.0547Z" fill="#05C2DF"/>
<path opacity="0.45" d="M117.489 11.0547H115.53V13.0547H117.489V11.0547Z" fill="#05C2DF"/>
<path opacity="0.45" d="M122.387 11.0547H120.428V13.0547H122.387V11.0547Z" fill="#05C2DF"/>
<path opacity="0.45" d="M127.285 11.0547H125.326V13.0547H127.285V11.0547Z" fill="#05C2DF"/>
<path opacity="0.45" d="M132.184 11.0547H130.225V13.0547H132.184V11.0547Z" fill="#05C2DF"/>
<path opacity="0.45" d="M143.547 11.2847H141.979V12.8846H143.547V11.2847Z" fill="#05C2DF"/>
<path opacity="0.45" d="M149.424 11.2847H147.856V12.8846H149.424V11.2847Z" fill="#05C2DF"/>
<path opacity="0.45" d="M155.302 11.2847H153.734V12.8846H155.302V11.2847Z" fill="#05C2DF"/>
<path opacity="0.45" d="M160.886 11.4849H159.612V12.7849H160.886V11.4849Z" fill="#05C2DF"/>
<path opacity="0.45" d="M167.742 11.4849H166.469V12.7849H167.742V11.4849Z" fill="#05C2DF"/>
<path opacity="0.45" d="M174.6 11.4849H173.326V12.7849H174.6V11.4849Z" fill="#05C2DF"/>
<path opacity="0.45" d="M181.457 11.4849H180.184V12.7849H181.457V11.4849Z" fill="#05C2DF"/>
<path opacity="0.45" d="M189.293 11.4849H188.02V12.7849H189.293V11.4849Z" fill="#05C2DF"/>
<path opacity="0.45" d="M198.109 11.4849H196.836V12.7849H198.109V11.4849Z" fill="#05C2DF"/>
<path opacity="0.45" d="M137.669 11.2847H136.102V12.8846H137.669V11.2847Z" fill="#05C2DF"/>
<path opacity="0.45" d="M236.02 11.5547H235.04V12.5547H236.02V11.5547Z" fill="#05C2DF"/>
<path opacity="0.45" d="M222.306 11.5547H221.326V12.5547H222.306V11.5547Z" fill="#05C2DF"/>
<path opacity="0.45" d="M209.571 11.5547H208.592V12.5547H209.571V11.5547Z" fill="#05C2DF"/>
<path opacity="0.45" d="M82.2238 55.0547H80.2646V57.0547H82.2238V55.0547Z" fill="#05C2DF"/>
<path opacity="0.45" d="M79.2853 55.0547H77.3262V57.0547H79.2853V55.0547Z" fill="#05C2DF"/>
<path opacity="0.45" d="M85.1633 55.0547H83.2041V57.0547H85.1633V55.0547Z" fill="#05C2DF"/>
<path opacity="0.45" d="M88.1017 55.0547H86.1426V57.0547H88.1017V55.0547Z" fill="#05C2DF"/>
<path opacity="0.45" d="M91.0403 55.0547H89.0811V57.0547H91.0403V55.0547Z" fill="#05C2DF"/>
<path opacity="0.45" d="M94.9592 55.0547H93V57.0547H94.9592V55.0547Z" fill="#05C2DF"/>
<path opacity="0.45" d="M98.8772 55.0547H96.918V57.0547H98.8772V55.0547Z" fill="#05C2DF"/>
<path opacity="0.45" d="M102.795 55.0547H100.836V57.0547H102.795V55.0547Z" fill="#05C2DF"/>
<path opacity="0.45" d="M107.694 55.0547H105.734V57.0547H107.694V55.0547Z" fill="#05C2DF"/>
<path opacity="0.45" d="M112.591 55.0547H110.632V57.0547H112.591V55.0547Z" fill="#05C2DF"/>
<path opacity="0.45" d="M117.489 55.0547H115.53V57.0547H117.489V55.0547Z" fill="#05C2DF"/>
<path opacity="0.45" d="M122.387 55.0547H120.428V57.0547H122.387V55.0547Z" fill="#05C2DF"/>
<path opacity="0.45" d="M127.285 55.0547H125.326V57.0547H127.285V55.0547Z" fill="#05C2DF"/>
<path opacity="0.45" d="M132.184 55.0547H130.225V57.0547H132.184V55.0547Z" fill="#05C2DF"/>
<path opacity="0.45" d="M143.547 55.2847H141.979V56.8846H143.547V55.2847Z" fill="#05C2DF"/>
<path opacity="0.45" d="M149.424 55.2847H147.856V56.8846H149.424V55.2847Z" fill="#05C2DF"/>
<path opacity="0.45" d="M155.302 55.2847H153.734V56.8846H155.302V55.2847Z" fill="#05C2DF"/>
<path opacity="0.45" d="M160.886 55.4849H159.612V56.7849H160.886V55.4849Z" fill="#05C2DF"/>
<path opacity="0.45" d="M167.742 55.4849H166.469V56.7849H167.742V55.4849Z" fill="#05C2DF"/>
<path opacity="0.45" d="M174.6 55.4849H173.326V56.7849H174.6V55.4849Z" fill="#05C2DF"/>
<path opacity="0.45" d="M181.457 55.4849H180.184V56.7849H181.457V55.4849Z" fill="#05C2DF"/>
<path opacity="0.45" d="M189.293 55.4849H188.02V56.7849H189.293V55.4849Z" fill="#05C2DF"/>
<path opacity="0.45" d="M198.109 55.4849H196.836V56.7849H198.109V55.4849Z" fill="#05C2DF"/>
<path opacity="0.45" d="M137.669 55.2847H136.102V56.8846H137.669V55.2847Z" fill="#05C2DF"/>
<path opacity="0.45" d="M236.02 55.5547H235.04V56.5547H236.02V55.5547Z" fill="#05C2DF"/>
<path opacity="0.45" d="M222.306 55.5547H221.326V56.5547H222.306V55.5547Z" fill="#05C2DF"/>
<path opacity="0.45" d="M209.571 55.5547H208.592V56.5547H209.571V55.5547Z" fill="#05C2DF"/>
</svg>
