<svg width="83" height="83" viewBox="0 0 83 83" fill="none" xmlns="http://www.w3.org/2000/svg">
<g clip-path="url(#clip0_1_10295)">
<path d="M77.4669 17.0996C80.2423 17.0996 82.5001 19.3574 82.5001 22.1328C82.5001 24.9084 80.2423 27.166 77.4669 27.166C74.6915 27.166 72.4337 24.9082 72.4337 22.1328C72.4338 19.3575 74.6914 17.0996 77.4669 17.0996Z" stroke="#05C2DF"/>
<path d="M5.5332 62.75C8.30873 62.75 10.5664 65.0078 10.5664 67.7832C10.5664 70.5586 8.30876 72.8164 5.5332 72.8164C2.75783 72.8164 0.5 70.5586 0.5 67.7832C0.500041 65.0079 2.75786 62.75 5.5332 62.75Z" stroke="#05C2DF"/>
<path d="M73.9783 18.0439L63.1522 12.6309" stroke="#05C2DF"/>
<path d="M62.2497 72.4336C65.0252 72.4336 67.2828 74.6915 67.2829 77.4668C67.2829 80.2422 65.0253 82.5 62.2497 82.5C59.4742 82.5 57.2165 80.2422 57.2165 77.4668C57.2165 74.6914 59.4742 72.4336 62.2497 72.4336Z" stroke="#05C2DF"/>
<path d="M58.4862 73.6048L48.3566 68.2041" stroke="#05C2DF"/>
<path d="M41.4997 37.8496C44.2752 37.8496 46.5329 40.1074 46.5329 42.8828C46.5329 45.6582 44.2753 47.916 41.4997 47.916C38.7243 47.916 36.4665 45.6583 36.4665 42.8828C36.4665 40.1075 38.7242 37.8497 41.4997 37.8496Z" stroke="#05C2DF"/>
<path d="M38.2524 38.6133L30.3133 32.4785" stroke="#05C2DF"/>
<path d="M66.4 36.4668C74.5138 36.4668 81.1168 43.0698 81.1168 51.1836C81.1167 59.2974 74.5137 65.9003 66.4 65.9004C58.2862 65.9004 51.6832 59.2974 51.6832 51.1836C51.6832 43.0698 58.2861 36.4668 66.4 36.4668Z" stroke="#05C2DF"/>
<path d="M66.3999 42C69.1754 42 71.4331 44.2578 71.4331 47.0332C71.4331 49.8086 69.1755 52.0664 66.3999 52.0664C63.6245 52.0664 61.3667 49.8087 61.3667 47.0332C61.3667 44.2578 63.6244 42 66.3999 42Z" stroke="#05C2DF"/>
<path d="M62.3869 55.833H70.4133C72.5138 55.8333 74.1992 57.4935 74.1994 59.5049V63.1514C74.1994 63.466 74.0315 63.7586 73.7599 63.915H73.759C71.516 65.2131 68.9711 65.8994 66.3996 65.8994C63.8281 65.8994 61.2832 65.2131 59.0402 63.915C58.7676 63.7568 58.5998 63.4657 58.5998 63.1504V59.5039C58.5998 57.4938 60.286 55.833 62.3869 55.833Z" stroke="#05C2DF"/>
<path d="M33.2004 53.0664C41.3142 53.0664 47.9172 59.6694 47.9172 67.7832C47.917 75.8969 41.3141 82.5 33.2004 82.5C25.0866 82.5 18.4836 75.897 18.4836 67.7832C18.4836 59.6694 25.0866 53.0664 33.2004 53.0664Z" stroke="#05C2DF"/>
<path d="M33.1998 58.5996C35.9753 58.5996 38.2329 60.8574 38.233 63.6328C38.233 66.4082 35.9752 68.666 33.1998 68.666C30.4244 68.666 28.1666 66.4083 28.1666 63.6328C28.1666 60.8575 30.4243 58.5996 33.1998 58.5996Z" stroke="#05C2DF"/>
<path d="M29.1873 72.4336H37.2137C39.3143 72.4338 40.9996 74.0941 40.9998 76.1055V79.752C40.9998 80.0667 40.8319 80.3592 40.5604 80.5156H40.5594C38.3164 81.8137 35.7716 82.5 33.2 82.5C30.6285 82.5 28.0836 81.8137 25.8406 80.5156C25.568 80.3574 25.4003 80.0663 25.4002 79.751V76.1045L25.4051 75.917C25.506 73.9921 27.1521 72.4336 29.1873 72.4336Z" stroke="#05C2DF"/>
<path d="M15.2168 18.4834C23.3304 18.4834 29.9334 25.0864 29.9336 33.2002C29.9336 41.314 23.3306 47.917 15.2168 47.917C7.10299 47.917 0.500042 41.314 0.5 33.2002C0.5 25.0864 7.10297 18.4834 15.2168 18.4834Z" stroke="#05C2DF"/>
<path d="M15.2169 24.0166C17.9923 24.0166 20.2501 26.2744 20.2501 29.0498C20.2501 31.8252 17.9925 34.083 15.2169 34.083C12.4415 34.083 10.1837 31.8252 10.1837 29.0498C10.1838 26.2745 12.4414 24.0166 15.2169 24.0166Z" stroke="#05C2DF"/>
<path d="M11.2037 37.8496H19.23C21.3305 37.8499 23.016 39.5101 23.0162 41.5215V45.168C23.0162 45.4826 22.8483 45.7752 22.5767 45.9316H22.5757C20.3327 47.2297 17.7879 47.916 15.2164 47.916C12.6449 47.916 10.0999 47.2297 7.85699 45.9316C7.58438 45.7734 7.41661 45.4823 7.41656 45.167V41.5205L7.42145 41.333C7.52232 39.4081 9.16844 37.8496 11.2037 37.8496Z" stroke="#05C2DF"/>
<path d="M48.417 0.5C56.5306 0.500049 63.1336 7.10298 63.1338 15.2168C63.1337 23.3306 56.5307 29.9335 48.417 29.9336C40.3032 29.9336 33.7002 23.3306 33.7002 15.2168C33.7002 7.10297 40.3032 0.5 48.417 0.5Z" stroke="#05C2DF"/>
<path d="M48.4163 6.0332C51.1916 6.0332 53.4493 8.29109 53.4495 11.0664C53.4495 13.8418 51.1917 16.0996 48.4163 16.0996C45.6409 16.0996 43.3831 13.8418 43.3831 11.0664C43.3831 8.29105 45.6408 6.03325 48.4163 6.0332Z" stroke="#05C2DF"/>
<path d="M44.4037 19.8672H52.4301C54.5306 19.8674 56.2161 21.5275 56.2162 23.5391V27.1855C56.2162 27.5002 56.0483 27.7928 55.7768 27.9492H55.7758C53.5328 29.2473 50.988 29.9336 48.4164 29.9336C45.845 29.9336 43.3 29.2473 41.0571 27.9492C40.7845 27.791 40.6167 27.4999 40.6166 27.1846V23.5381C40.6166 21.528 42.3029 19.8672 44.4037 19.8672Z" stroke="#05C2DF"/>
<path d="M33.4039 14.4346L24.5391 21.652" stroke="#05C2DF"/>
<path d="M65.6781 36.0872L58.4607 26.3438" stroke="#05C2DF"/>
<path d="M52.1143 56.2959L46.5522 60.6263" stroke="#05C2DF"/>
<path d="M18.3443 67.4824H10.826" stroke="#05C2DF"/>
<path d="M15.2164 0.5C17.9918 0.5 20.2497 2.75785 20.2496 5.5332C20.2496 8.30862 17.9919 10.5664 15.2164 10.5664C12.441 10.5664 10.1832 8.30874 10.1832 5.5332C10.1832 2.75792 12.4409 0.500129 15.2164 0.5Z" stroke="#05C2DF"/>
<path d="M14.0736 10.8262V18.0436" stroke="#05C2DF"/>
</g>
<defs>
<clipPath id="clip0_1_10295">
<rect width="83" height="83" fill="white"/>
</clipPath>
</defs>
</svg>
