<svg width="248" height="69" viewBox="0 0 248 69" fill="none" xmlns="http://www.w3.org/2000/svg">
<path opacity="0.45" d="M51 6.05469C46.1191 2.64341 40.9135 1.40676 35 1.05472C29.0865 0.702688 23.5605 2.05791 18.3211 4.86672C13.0817 7.67553 8.69816 11.8874 5.64507 17.0464C2.59199 22.2054 0.985693 28.1148 1.0001 34.135C1.0145 40.1552 2.64905 46.0566 5.72678 51.2005C8.80452 56.3443 13.2082 60.5345 18.4609 63.3174C23.7137 66.1002 29.6155 67.3698 35.5272 66.9885C41.439 66.6073 47.1355 64.49 52 61.0547" stroke="#05C2DF" stroke-width="2" stroke-miterlimit="1.51696"/>
<path d="M34.0306 60.2102C48.6177 60.2102 60.4429 48.4196 60.4429 33.8751C60.4429 19.3306 48.6177 7.54004 34.0306 7.54004C19.4434 7.54004 7.61816 19.3306 7.61816 33.8751C7.61816 48.4196 19.4434 60.2102 34.0306 60.2102Z" stroke="#05C2DF" stroke-miterlimit="10"/>
<path opacity="0.45" d="M86 11.0547H56V13.0547H86V11.0547Z" fill="#05C2DF"/>
<path opacity="0.45" d="M86 55.0547H56V57.0547H86V55.0547Z" fill="#05C2DF"/>
<path d="M45 34.0547L27.75 44.447L27.75 23.6624L45 34.0547Z" fill="white"/>
<path opacity="0.45" d="M91 11.0547H89V13.0547H91V11.0547Z" fill="#05C2DF"/>
<path opacity="0.45" d="M88 11.0547H86V13.0547H88V11.0547Z" fill="#05C2DF"/>
<path opacity="0.45" d="M94 11.0547H92V13.0547H94V11.0547Z" fill="#05C2DF"/>
<path opacity="0.45" d="M97 11.0547H95V13.0547H97V11.0547Z" fill="#05C2DF"/>
<path opacity="0.45" d="M100 11.0547H98V13.0547H100V11.0547Z" fill="#05C2DF"/>
<path opacity="0.45" d="M104 11.0547H102V13.0547H104V11.0547Z" fill="#05C2DF"/>
<path opacity="0.45" d="M108 11.0547H106V13.0547H108V11.0547Z" fill="#05C2DF"/>
<path opacity="0.45" d="M112 11.0547H110V13.0547H112V11.0547Z" fill="#05C2DF"/>
<path opacity="0.45" d="M117 11.0547H115V13.0547H117V11.0547Z" fill="#05C2DF"/>
<path opacity="0.45" d="M122 11.0547H120V13.0547H122V11.0547Z" fill="#05C2DF"/>
<path opacity="0.45" d="M127 11.0547H125V13.0547H127V11.0547Z" fill="#05C2DF"/>
<path opacity="0.45" d="M132 11.0547H130V13.0547H132V11.0547Z" fill="#05C2DF"/>
<path opacity="0.45" d="M137 11.0547H135V13.0547H137V11.0547Z" fill="#05C2DF"/>
<path opacity="0.45" d="M142 11.0547H140V13.0547H142V11.0547Z" fill="#05C2DF"/>
<path opacity="0.45" d="M153.6 11.2852H152V12.8852H153.6V11.2852Z" fill="#05C2DF"/>
<path opacity="0.45" d="M159.6 11.2852H158V12.8852H159.6V11.2852Z" fill="#05C2DF"/>
<path opacity="0.45" d="M165.6 11.2852H164V12.8852H165.6V11.2852Z" fill="#05C2DF"/>
<path opacity="0.45" d="M171.3 11.4844H170V12.7844H171.3V11.4844Z" fill="#05C2DF"/>
<path opacity="0.45" d="M178.3 11.4844H177V12.7844H178.3V11.4844Z" fill="#05C2DF"/>
<path opacity="0.45" d="M185.3 11.4844H184V12.7844H185.3V11.4844Z" fill="#05C2DF"/>
<path opacity="0.45" d="M192.3 11.4844H191V12.7844H192.3V11.4844Z" fill="#05C2DF"/>
<path opacity="0.45" d="M200.3 11.4844H199V12.7844H200.3V11.4844Z" fill="#05C2DF"/>
<path opacity="0.45" d="M209.3 11.4844H208V12.7844H209.3V11.4844Z" fill="#05C2DF"/>
<path opacity="0.45" d="M147.6 11.2852H146V12.8852H147.6V11.2852Z" fill="#05C2DF"/>
<path opacity="0.45" d="M248 11.5547H247V12.5547H248V11.5547Z" fill="#05C2DF"/>
<path opacity="0.45" d="M234 11.5547H233V12.5547H234V11.5547Z" fill="#05C2DF"/>
<path opacity="0.45" d="M221 11.5547H220V12.5547H221V11.5547Z" fill="#05C2DF"/>
<path opacity="0.45" d="M91 55.0547H89V57.0547H91V55.0547Z" fill="#05C2DF"/>
<path opacity="0.45" d="M88 55.0547H86V57.0547H88V55.0547Z" fill="#05C2DF"/>
<path opacity="0.45" d="M94 55.0547H92V57.0547H94V55.0547Z" fill="#05C2DF"/>
<path opacity="0.45" d="M97 55.0547H95V57.0547H97V55.0547Z" fill="#05C2DF"/>
<path opacity="0.45" d="M100 55.0547H98V57.0547H100V55.0547Z" fill="#05C2DF"/>
<path opacity="0.45" d="M104 55.0547H102V57.0547H104V55.0547Z" fill="#05C2DF"/>
<path opacity="0.45" d="M108 55.0547H106V57.0547H108V55.0547Z" fill="#05C2DF"/>
<path opacity="0.45" d="M112 55.0547H110V57.0547H112V55.0547Z" fill="#05C2DF"/>
<path opacity="0.45" d="M117 55.0547H115V57.0547H117V55.0547Z" fill="#05C2DF"/>
<path opacity="0.45" d="M122 55.0547H120V57.0547H122V55.0547Z" fill="#05C2DF"/>
<path opacity="0.45" d="M127 55.0547H125V57.0547H127V55.0547Z" fill="#05C2DF"/>
<path opacity="0.45" d="M132 55.0547H130V57.0547H132V55.0547Z" fill="#05C2DF"/>
<path opacity="0.45" d="M137 55.0547H135V57.0547H137V55.0547Z" fill="#05C2DF"/>
<path opacity="0.45" d="M142 55.0547H140V57.0547H142V55.0547Z" fill="#05C2DF"/>
<path opacity="0.45" d="M153.6 55.2852H152V56.8852H153.6V55.2852Z" fill="#05C2DF"/>
<path opacity="0.45" d="M159.6 55.2852H158V56.8852H159.6V55.2852Z" fill="#05C2DF"/>
<path opacity="0.45" d="M165.6 55.2852H164V56.8852H165.6V55.2852Z" fill="#05C2DF"/>
<path opacity="0.45" d="M171.3 55.4844H170V56.7844H171.3V55.4844Z" fill="#05C2DF"/>
<path opacity="0.45" d="M178.3 55.4844H177V56.7844H178.3V55.4844Z" fill="#05C2DF"/>
<path opacity="0.45" d="M185.3 55.4844H184V56.7844H185.3V55.4844Z" fill="#05C2DF"/>
<path opacity="0.45" d="M192.3 55.4844H191V56.7844H192.3V55.4844Z" fill="#05C2DF"/>
<path opacity="0.45" d="M200.3 55.4844H199V56.7844H200.3V55.4844Z" fill="#05C2DF"/>
<path opacity="0.45" d="M209.3 55.4844H208V56.7844H209.3V55.4844Z" fill="#05C2DF"/>
<path opacity="0.45" d="M147.6 55.2852H146V56.8852H147.6V55.2852Z" fill="#05C2DF"/>
<path opacity="0.45" d="M248 55.5547H247V56.5547H248V55.5547Z" fill="#05C2DF"/>
<path opacity="0.45" d="M234 55.5547H233V56.5547H234V55.5547Z" fill="#05C2DF"/>
<path opacity="0.45" d="M221 55.5547H220V56.5547H221V55.5547Z" fill="#05C2DF"/>
</svg>
